<svg width="121" height="20" viewBox="0 0 121 20" fill="none" xmlns="http://www.w3.org/2000/svg">
<path fill-rule="evenodd" clip-rule="evenodd" d="M86.251 0.879883C80.8425 0.879883 77.0647 4.84445 77.0647 10.1099C77.0647 15.3753 80.8425 19.3399 86.251 19.3399C91.6596 19.3399 95.4373 15.396 95.4373 10.1099C95.4373 4.8238 91.6596 0.879883 86.251 0.879883ZM86.251 17.3163C82.4114 17.3163 79.9961 14.1364 79.9961 10.1099C79.9961 6.08338 82.432 2.90346 86.251 2.90346C90.0701 2.90346 92.506 6.08338 92.506 10.1099C92.506 14.1364 90.0907 17.3163 86.251 17.3163ZM0.250624 1.18961H19.5522C21.245 1.18961 22.5042 2.46984 22.5042 4.14239V16.0774C22.5042 17.7499 21.2656 19.0302 19.5728 19.0302H3.18198C1.48923 19.0302 0.22998 17.7499 0.22998 16.0774V10.1305C0.22998 8.45799 1.48923 7.17776 3.18198 7.17776H16.5589V10.1099H4.06965C3.51228 10.1099 3.16134 10.5022 3.16134 11.0597V15.1688C3.16134 15.747 3.49164 16.1187 4.06965 16.1187H18.6852C19.2425 16.1187 19.5935 15.7264 19.5935 15.1688V5.07159C19.5935 4.49342 19.2632 4.12174 18.6852 4.12174H0.250624V1.18961ZM71.2432 9.46978V9.59367L71.2639 9.57302C74.2365 9.75886 76.466 10.9358 76.466 14.0538C76.466 17.1718 74.0507 19.0302 70.5413 19.0302H62.4285V18.8856C63.0065 18.2662 63.3368 17.4609 63.3368 16.2426V3.9772C63.3368 2.75892 63.0065 1.95362 62.4285 1.33416V1.18961H69.9633C73.1837 1.18961 75.5164 2.94476 75.5164 5.29872C75.5164 7.65268 73.9268 9.1807 71.2432 9.46978ZM66.1236 17.1511H69.2202V17.1305C71.5322 17.1305 73.5966 16.573 73.5966 13.806C73.5966 11.0391 71.1193 10.5022 69.0757 10.5022H67.4861V8.62318H69.0137C70.851 8.62318 72.6882 7.79723 72.6882 5.7117C72.6882 3.62617 70.9129 3.06865 69.0963 3.06865H66.1236V17.1511ZM56.8548 9.59367V9.46978C59.5385 9.1807 61.128 7.65268 61.128 5.29872C61.128 2.94476 58.7953 1.18961 55.5749 1.18961H48.0401V1.33416C48.6181 1.95362 48.9484 2.75892 48.9484 3.9772V16.2426C48.9484 17.4609 48.6181 18.2662 48.0401 18.8856V19.0302H56.1529C59.6623 19.0302 62.0776 17.1718 62.0776 14.0538C62.0776 10.9358 59.8481 9.75886 56.8755 9.57302L56.8548 9.59367ZM54.8318 17.1511H51.7353V3.06865H54.7079C56.5245 3.06865 58.2999 3.62617 58.2999 5.7117C58.2999 7.79723 56.4626 8.62318 54.6253 8.62318H53.0977V10.5022H54.6873C56.731 10.5022 59.2082 11.0391 59.2082 13.806C59.2082 16.573 57.1438 17.1305 54.8318 17.1305V17.1511ZM94.6941 4.34888V1.18961H120.23V4.34888H120.086C119.611 3.64682 118.744 3.06865 116.927 3.06865H114.223V16.2426C114.223 17.4402 114.553 18.2662 115.131 18.8856V19.0302H110.528V18.8856C111.085 18.2662 111.436 17.4402 111.436 16.2426V3.06865H103.509V16.2426C103.509 17.4402 103.839 18.2662 104.397 18.8856V19.0302H99.8344V18.8856C100.412 18.2662 100.722 17.4402 100.722 16.2426V3.06865H97.9764C96.1598 3.06865 95.3135 3.64682 94.8387 4.34888H94.6941ZM37.3262 1.18961H40.1131L40.1544 1.21026L45.852 16.16C46.3061 17.337 46.6983 18.1423 47.4415 18.8856V19.0302H42.7142V18.8856C42.9619 18.4107 43.0857 17.9977 43.0857 17.5228C43.0857 17.0479 42.9619 16.573 42.7761 16.0567L41.8265 13.4963H34.8077L33.982 15.6438C33.7549 16.2632 33.5072 17.0272 33.5072 17.688C33.5072 18.1216 33.5898 18.5552 33.8788 18.8856V19.0302H29.9359V18.8856L29.9421 18.8789C30.436 18.3438 30.992 17.7412 31.7938 15.6438L37.3262 1.18961ZM38.2965 4.26628L35.5096 11.6173H35.5303H41.1246L38.4203 4.26628H38.2965Z" fill="#000075"/>
</svg>
