<svg width="677" height="51" viewBox="0 0 677 51" fill="none" xmlns="http://www.w3.org/2000/svg">
<g clip-path="url(#clip0)">
<path d="M677 0H651.707L587.551 64H628.931L677 16.0459V0Z" fill="#FFB71B"/>
<path d="M561.689 0L497.516 64H538.904L603.069 0H561.689Z" fill="#FFB71B"/>
<path d="M472.321 0L408.156 64H449.545L513.71 0H472.321Z" fill="#FFB71B"/>
<path d="M383.097 0L318.957 64H360.337L424.477 0H383.097Z" fill="#FFB71B"/>
<path d="M293.59 0L229.434 64H270.814L334.979 0H293.59Z" fill="#FFB71B"/>
<path d="M203.739 0L139.574 64H180.963L245.128 0H203.739Z" fill="#FFB71B"/>
<path d="M114.282 0L50.125 64H91.5053L155.662 0H114.282Z" fill="#FFB71B"/>
<path d="M24.3386 0L-27 51.2067V64H1.56235L65.7273 0H24.3386Z" fill="#FFB71B"/>
</g>
<defs>
<clipPath id="clip0">
<rect width="704" height="51" fill="white" transform="translate(-27)"/>
</clipPath>
</defs>
</svg>
