<svg xmlns="http://www.w3.org/2000/svg" width="1780" height="325" viewBox="0 0 1780 325" version="1.1">
	<rect x="0" y="0" width="100%" height="100%" fill="#FFFFFF" />
	<path d="M 121.308 23.750 C 121.617 25.813, 126.915 75.875, 133.080 135 C 139.245 194.125, 144.449 242.687, 144.644 242.917 C 144.840 243.146, 145.275 243.058, 145.611 242.722 C 146.215 242.118, 168.961 28.069, 168.987 22.750 L 169 20 144.872 20 L 120.744 20 121.308 23.750 M 41.727 48.606 C 41.394 48.939, 42.930 51.500, 45.140 54.297 C 55.435 67.320, 58.862 81.825, 55.940 100 C 54.295 110.232, 48.970 124.853, 39.004 146.500 C 24.201 178.658, 20.792 190.771, 20.712 211.500 C 20.617 236.110, 27.578 254.331, 43.379 270.835 C 61.876 290.155, 91.130 301.678, 126.750 303.675 L 138 304.306 138 299.782 L 138 295.258 131.750 294.579 C 120.155 293.318, 108.608 289.998, 98.215 284.938 C 89.662 280.774, 86.624 278.624, 80.174 272.174 C 66.806 258.806, 60.689 243.218, 60.682 222.500 C 60.675 204.521, 63.451 193.819, 75.726 164.500 C 84.887 142.619, 87.348 135.549, 89.531 124.849 C 91.719 114.118, 91.133 99.096, 88.170 90 C 82.205 71.687, 66.180 55.225, 49.217 49.985 C 41.825 47.702, 42.506 47.828, 41.727 48.606 M 684.500 124.656 C 653.080 131.356, 628.515 154.873, 619.843 186.554 C 616.641 198.252, 616.565 224.035, 619.699 235.500 C 628.982 269.456, 654.167 292.661, 688.192 298.607 C 699.002 300.496, 713.688 300.020, 724 297.447 C 733.050 295.188, 749.349 287.087, 756.465 281.311 C 770.243 270.126, 780.590 253.530, 785.649 234.500 C 787.990 225.694, 788.311 222.589, 788.336 208.500 C 788.363 193.927, 788.126 191.716, 785.674 183.703 C 775.790 151.405, 751.029 129.258, 719 124.068 C 709.897 122.593, 692.807 122.884, 684.500 124.656 M 1051.035 125.468 C 1046.380 126.744, 1042.424 128.173, 1042.244 128.644 C 1042.064 129.115, 1028.946 164.130, 1013.091 206.456 L 984.265 283.412 980.382 284.655 C 978.247 285.339, 973.913 286.628, 970.750 287.520 C 965.428 289.021, 965 289.360, 965 292.071 L 965 295 992 295 L 1019 295 1019 292.067 C 1019 288.764, 1019.694 289.083, 1005.750 285.995 C 1000.220 284.770, 996 283.331, 996 282.669 C 996 282.027, 999.681 271.489, 1004.180 259.251 L 1012.360 237 1044.535 237 L 1076.711 237 1084.771 258.750 C 1089.203 270.712, 1093.111 281.209, 1093.455 282.076 C 1093.970 283.373, 1092.260 284.048, 1083.790 285.895 C 1069.302 289.053, 1070 288.741, 1070 292.067 L 1070 295 1105.500 295 L 1141 295 1141 292.071 C 1141 289.362, 1140.568 289.019, 1135.250 287.503 C 1132.088 286.602, 1127.836 285.381, 1125.802 284.790 C 1123.768 284.198, 1121.815 282.991, 1121.461 282.107 C 1121.108 281.223, 1107.846 245.850, 1091.990 203.500 C 1076.135 161.150, 1062.853 125.713, 1062.474 124.750 C 1061.628 122.598, 1061.474 122.608, 1051.035 125.468 M 1687.359 124.903 C 1671.891 128.706, 1661.443 136.576, 1655.736 148.725 C 1652.962 154.628, 1652.505 156.787, 1652.184 165.500 C 1651.873 173.908, 1652.159 176.414, 1653.977 181.243 C 1659.089 194.825, 1670.661 205.295, 1694.500 217.907 C 1721.261 232.065, 1727.108 236.448, 1731.694 245.786 C 1735.378 253.288, 1735.661 264.906, 1732.336 272.149 C 1724.202 289.867, 1699.216 297.056, 1675.017 288.641 C 1670.965 287.232, 1667.117 285.499, 1666.466 284.789 C 1665.814 284.080, 1661.955 275.744, 1657.890 266.265 C 1651.297 250.891, 1650.244 249.029, 1648.125 249.015 C 1646.068 249.002, 1645.822 249.369, 1646.286 251.750 C 1646.581 253.262, 1647.633 263, 1648.623 273.390 L 1650.424 292.279 1653.561 293.590 C 1661.952 297.096, 1677.386 299.275, 1694.500 299.369 C 1713.863 299.476, 1720.607 298.253, 1732.688 292.442 C 1756.871 280.810, 1766.260 255.248, 1755.105 231.411 C 1749.477 219.383, 1739.497 211.693, 1708 195.112 C 1689.771 185.516, 1684.030 181.515, 1679.694 175.384 C 1675.388 169.296, 1674.164 165.612, 1674.086 158.500 C 1673.965 147.555, 1680.241 138.122, 1690.994 133.088 C 1695.796 130.840, 1697.779 130.517, 1706.500 130.563 C 1714.632 130.605, 1717.714 131.076, 1723 133.087 L 1729.500 135.559 1737.227 151.280 C 1743.890 164.833, 1745.274 167, 1747.274 167 L 1749.593 167 1747.856 150.250 C 1746.901 141.037, 1746.093 132.500, 1746.060 131.278 C 1746.011 129.471, 1745.018 128.775, 1740.750 127.554 C 1724.241 122.830, 1700.570 121.655, 1687.359 124.903 M 1176.750 127.745 L 1168 128.078 1168 130.832 C 1168 133.273, 1168.539 133.728, 1172.750 134.847 C 1175.362 135.540, 1179.865 136.791, 1182.757 137.627 L 1188.013 139.146 1187.757 211.240 L 1187.500 283.333 1183.500 284.616 C 1181.300 285.321, 1176.912 286.628, 1173.750 287.520 C 1168.428 289.021, 1168 289.360, 1168 292.071 L 1168 295 1202 295 L 1236 295 1236 292.039 C 1236 288.770, 1236.059 288.796, 1221.250 285.469 L 1214 283.840 1214 250.920 L 1214 218 1223.750 218.021 L 1233.500 218.042 1258.320 256.521 L 1283.141 295 1305.070 295 L 1327 295 1327 292.207 C 1327 289.485, 1326.716 289.342, 1315.644 286.515 L 1304.287 283.616 1296.800 272.058 C 1292.681 265.701, 1282.295 249.840, 1273.719 236.810 L 1258.127 213.121 1264.439 211.020 C 1284.179 204.451, 1295.536 191.531, 1296.717 174.301 C 1298.470 148.730, 1280.581 132.069, 1247.026 128.022 C 1239.304 127.091, 1198.180 126.928, 1176.750 127.745 M 417 130.763 C 417 133.272, 417.484 133.641, 422.250 134.772 C 425.137 135.457, 429.863 137.643, 432.750 139.630 L 438 143.244 438 213.444 L 438 283.643 429 286.338 C 420.279 288.948, 420 289.124, 420 292.016 L 420 295 445.500 295 L 471 295 471 292.099 C 471 289.228, 470.880 289.168, 459.500 286.393 L 448 283.588 448 219.794 C 448 184.707, 448.337 156.028, 448.750 156.063 C 449.163 156.097, 473.968 187.822, 503.873 226.563 C 558.147 296.873, 558.252 297, 561.873 297 L 565.500 297.001 565.200 218.031 L 564.900 139.062 573.950 136.353 C 582.572 133.772, 583 133.510, 583 130.822 L 583 128 557.434 128 L 531.867 128 532.184 130.750 C 532.485 133.369, 533.016 133.626, 543.303 136.136 C 549.244 137.586, 554.311 138.977, 554.561 139.228 C 554.812 139.479, 554.901 164.592, 554.759 195.036 L 554.500 250.388 507.500 189.231 L 460.500 128.074 438.750 128.037 L 417 128 417 130.763 M 807.184 130.710 C 807.470 133.165, 808.301 133.675, 815.990 136.117 C 820.659 137.600, 824.833 139.418, 825.265 140.157 C 825.696 140.896, 839.253 176.600, 855.391 219.500 L 884.732 297.500 892.120 297.788 L 899.507 298.075 928.415 220.288 C 944.315 177.504, 957.872 141.600, 958.543 140.500 C 959.330 139.209, 962.639 137.651, 967.881 136.104 C 975.584 133.832, 976 133.563, 976 130.854 L 976 128 950.934 128 L 925.867 128 926.184 130.750 C 926.482 133.341, 927.076 133.649, 936.437 136.062 C 941.903 137.470, 946.533 139.099, 946.727 139.680 C 946.920 140.261, 937.201 167.683, 925.129 200.618 C 898.050 274.494, 901.042 266.827, 900.007 264.978 C 898.020 261.426, 853.951 139.888, 854.392 139.174 C 854.659 138.743, 859.405 137.321, 864.939 136.014 C 874.747 133.699, 875 133.568, 875 130.820 L 875 128 840.934 128 L 806.867 128 807.184 130.710 M 1348.125 139.750 C 1345.421 166.958, 1345.419 164, 1348.142 164 C 1350.281 164, 1351.295 162.384, 1356.929 150 L 1363.298 136 1383.149 136 L 1403 136 1403 209.877 L 1403 283.753 1393.250 285.949 C 1379.298 289.090, 1380 288.766, 1380 292.067 L 1380 295 1416.500 295 L 1453 295 1453 292.077 C 1453 289.170, 1452.934 289.138, 1441.500 286.479 L 1430 283.804 1430 209.902 L 1430 136 1449.579 136 L 1469.159 136 1475.781 150 C 1481.627 162.362, 1482.688 164, 1484.840 164 C 1487.194 164, 1487.257 163.819, 1486.653 158.750 C 1486.309 155.863, 1485.488 147.762, 1484.830 140.750 L 1483.632 128 1416.462 128 L 1349.293 128 1348.125 139.750 M 1528 130.817 C 1528 133.512, 1528.336 133.711, 1535.750 135.404 C 1540.013 136.378, 1545.188 137.602, 1547.250 138.126 L 1551 139.077 1551 211.415 L 1551 283.753 1541.250 285.949 C 1527.298 289.090, 1528 288.766, 1528 292.067 L 1528 295 1564.500 295 L 1601 295 1601 292.100 C 1601 289.226, 1600.894 289.174, 1589.250 286.350 L 1577.500 283.500 1577.243 211.319 C 1577.001 143.206, 1577.086 139.110, 1578.743 138.632 C 1579.710 138.353, 1585.112 137.106, 1590.750 135.861 C 1600.769 133.649, 1601 133.535, 1601 130.799 L 1601 128 1564.500 128 L 1528 128 1528 130.817 M 689 131.091 C 686.525 131.571, 681.285 133.548, 677.355 135.484 C 643.711 152.063, 634.278 216.683, 659.085 260.640 C 665.457 271.933, 676.525 282.923, 686.107 287.474 C 699.516 293.842, 714.812 293.868, 727.604 287.546 C 763.417 269.846, 772.077 200.279, 743.753 157.816 C 729.438 136.354, 710.225 126.977, 689 131.091 M 1214 173.047 L 1214 210.306 1225.250 209.703 C 1243.188 208.742, 1253.709 204.567, 1262.314 194.996 C 1268.094 188.567, 1270.339 182.018, 1270.208 171.964 C 1269.912 149.130, 1256.521 139.014, 1223.250 136.490 L 1214 135.788 1214 173.047 M 1031.031 186.265 C 1023.657 206.194, 1017.436 223.063, 1017.205 223.750 C 1016.877 224.730, 1022.774 225, 1044.510 225 C 1070.424 225, 1072.203 224.886, 1071.766 223.250 C 1071.083 220.692, 1045.921 152.722, 1045.118 151.265 C 1044.743 150.586, 1038.404 166.336, 1031.031 186.265" stroke="none" fill="#000000" fill-rule="evenodd"/>
</svg>