<svg width="248" height="262" viewBox="0 0 248 262" fill="none" xmlns="http://www.w3.org/2000/svg">
<path d="M123.819 0.758789C82.819 0.758789 49.5229 34.0012 49.5229 74.935C49.5229 115.869 121.077 185.743 123.819 185.743C126.561 185.743 198.115 115.869 198.115 74.935C198.115 34.0012 164.819 0.758789 123.819 0.758789Z" fill="#0071CE"/>
<path d="M123.819 51.6001H74.854V69.0687C74.854 69.3294 74.854 69.5901 74.854 69.8508C75.1151 74.935 77.8572 79.4976 82.2966 82.1049C86.9973 84.8425 92.6119 85.1032 97.4431 82.6263C98.8794 81.8442 100.838 80.5405 102.797 79.1065C108.411 75.0653 115.462 70.1116 123.688 70.1116C131.914 70.1116 138.965 75.0653 144.58 79.1065C146.538 80.5405 148.497 81.9745 149.933 82.6263C154.765 84.9729 160.379 84.8425 165.08 82.1049C169.519 79.4976 172.261 75.0653 172.522 69.8508C172.522 69.5901 172.522 69.3294 172.522 69.0687V51.6001H123.819Z" fill="#FFB71B"/>
<path d="M168.083 87.0588C161.685 90.8393 153.981 91.1001 147.453 87.841C145.625 86.9285 143.535 85.4945 141.316 83.7998C136.354 80.28 130.217 75.8477 123.819 75.8477C117.421 75.8477 111.284 80.28 106.322 83.7998C103.972 85.4945 102.013 86.9285 100.185 87.841C97.1821 89.4053 93.7872 90.0572 90.5229 90.0572C86.7363 90.0572 82.9497 89.0143 79.5548 87.0588C79.4242 86.9285 79.163 86.7981 79.0325 86.6677C85.6917 105.049 103.319 118.215 123.95 118.215C144.58 118.215 162.207 105.049 168.867 86.6677C168.475 86.7981 168.344 86.9285 168.083 87.0588Z" fill="white"/>
<path d="M123.819 22.9204C106.453 22.9204 91.3064 32.1761 82.9497 45.8642H123.819H164.688C156.201 32.0458 141.055 22.9204 123.819 22.9204Z" fill="white"/>
<path d="M32.5486 221.071C32.5486 223.287 32.1568 225.373 31.2428 227.329C30.3288 229.284 29.2842 230.979 27.7174 232.413C26.2811 233.847 24.5836 235.02 22.625 235.932C20.6664 236.715 18.5773 237.236 16.3575 237.236C14.1378 237.236 12.0486 236.845 10.09 235.932C8.13145 235.15 6.434 233.977 4.9977 232.543C3.5614 231.109 2.38624 229.414 1.47223 227.459C0.688795 225.504 0.166504 223.418 0.166504 221.202C0.166504 218.985 0.558222 216.9 1.47223 214.944C2.25567 212.989 3.43082 211.294 4.9977 209.86C6.434 208.426 8.13145 207.253 10.09 206.34C12.0486 205.428 14.1378 205.037 16.3575 205.037C18.5773 205.037 20.6664 205.428 22.625 206.34C24.5836 207.253 26.2811 208.296 27.7174 209.86C29.1537 211.294 30.3288 212.989 31.2428 214.944C32.1568 216.769 32.5486 218.855 32.5486 221.071ZM26.2811 221.071C26.2811 219.768 26.0199 218.464 25.4976 217.291C24.9753 216.117 24.3225 215.075 23.4085 214.162C22.4945 213.249 21.4499 212.598 20.2747 211.946C19.0996 211.424 17.7938 211.164 16.4881 211.164C15.1824 211.164 13.8767 211.424 12.7015 211.946C11.5263 212.467 10.4818 213.249 9.56775 214.032C8.65374 214.944 8.00087 215.987 7.47858 217.16C6.95629 218.334 6.69514 219.637 6.69514 220.941C6.69514 222.244 6.95629 223.548 7.47858 224.721C8.00087 225.895 8.78431 226.937 9.56775 227.85C10.4818 228.763 11.5263 229.414 12.7015 229.936C13.8767 230.457 15.1824 230.718 16.4881 230.718C17.7938 230.718 19.0996 230.457 20.2747 229.936C21.4499 229.414 22.4945 228.632 23.4085 227.72C24.3225 226.807 24.9753 225.764 25.4976 224.591C26.0199 223.678 26.2811 222.375 26.2811 221.071Z" fill="white"/>
<path d="M68.9784 236.584H65.1918L44.1696 215.466V236.584H37.9021V205.428H43.125L62.8415 225.764V205.428H68.9784V236.584Z" fill="white"/>
<path d="M90.0006 224.069H73.679V217.812H90.0006V224.069Z" fill="white"/>
<path d="M124.211 230.327C124.211 232.282 123.689 233.847 122.513 234.89C121.469 235.933 119.902 236.454 117.813 236.454H95.6153V230.197H117.943V223.939H101.361C99.5325 223.939 97.9657 223.418 96.9211 222.375C95.7459 221.332 95.2236 219.768 95.2236 217.682V211.424C95.2236 209.469 95.7459 207.905 96.9211 206.862C98.0962 205.819 99.5325 205.167 101.491 205.167H122.774V211.424H101.491V217.682H118.074C120.032 217.682 121.469 218.203 122.644 219.377C123.819 220.55 124.341 221.984 124.341 223.939V230.327H124.211Z" fill="white"/>
<path d="M136.746 236.584H130.478V205.428H136.746V236.584Z" fill="white"/>
<path d="M174.351 236.584H149.411C145.233 236.584 143.144 234.499 143.144 230.327V211.685C143.144 209.86 143.666 208.426 144.711 207.253C145.755 206.08 147.322 205.428 149.281 205.428H173.176V211.685H149.281V230.327H167.953V223.939H155.548V217.812H174.351V236.584Z" fill="white"/>
<path d="M211.042 236.584H204.774V224.2H187.147V236.584H180.879V205.428H187.147V217.943H204.774V205.428H211.042V236.584Z" fill="white"/>
<path d="M247.08 211.685H234.545V236.584H228.408V211.685H215.873V205.428H247.08V211.685Z" fill="white"/>
<path d="M29.1537 259.137C29.1537 259.919 28.8926 260.571 28.5008 260.962C28.1091 261.353 27.4563 261.614 26.6728 261.614H17.6633V259.137H26.6728V256.66H20.0136C19.2302 256.66 18.7079 256.399 18.1856 256.008C17.6633 255.617 17.5327 254.965 17.5327 254.183V251.706C17.5327 250.924 17.7939 250.272 18.1856 249.881C18.5773 249.49 19.2302 249.229 20.0136 249.229H28.6314V251.706H20.0136V254.183H26.6728C27.4563 254.183 28.1091 254.444 28.5008 254.835C29.0231 255.226 29.1537 255.878 29.1537 256.66V259.137Z" fill="white"/>
<path d="M48.348 261.614H45.8671V256.53H38.2939V261.614H35.813V251.576C35.813 250.794 36.0741 250.142 36.4659 249.751C36.9881 249.36 37.5104 249.099 38.2939 249.099H45.8671C46.2588 249.099 46.52 249.099 46.9117 249.229C47.1728 249.36 47.434 249.49 47.6951 249.751C47.9563 250.012 48.0868 250.272 48.2174 250.533C48.348 250.794 48.348 251.185 48.348 251.576V261.614ZM45.8671 254.053V251.576H38.2939V254.053H45.8671Z" fill="white"/>
<path d="M65.1918 256.53H57.6186V261.614H55.1377V248.969H65.1918V251.446H57.6186V253.923H65.1918V256.53Z" fill="white"/>
<path d="M81.5136 261.614H71.4595V248.969H81.5136V251.446H73.9404V253.923H81.5136V256.399H73.9404V258.876H81.5136V261.614Z" fill="white"/>
<path d="M99.9241 251.446H94.8318V261.484H92.3509V251.446H87.2585V248.969H99.9241V251.446Z" fill="white"/>
<path d="M117.813 248.969L112.72 257.182V261.614H110.239V257.182L105.278 248.969H108.15L111.545 254.574L115.071 248.969H117.813Z" fill="white"/>
<path d="M147.322 255.356C147.322 256.269 147.192 257.051 146.8 257.833C146.408 258.616 146.016 259.267 145.364 259.919C144.711 260.571 144.058 260.962 143.274 261.353C142.491 261.744 141.708 261.875 140.794 261.875C139.88 261.875 139.096 261.744 138.313 261.353C137.529 260.962 136.876 260.571 136.223 259.919C135.571 259.267 135.179 258.616 134.787 257.833C134.395 257.051 134.265 256.139 134.265 255.356C134.265 254.444 134.395 253.662 134.787 252.88C135.179 252.097 135.571 251.446 136.223 250.794C136.876 250.142 137.529 249.751 138.313 249.36C139.096 248.969 140.01 248.838 140.794 248.838C141.708 248.838 142.491 248.969 143.274 249.36C144.058 249.751 144.711 250.142 145.364 250.794C146.016 251.446 146.408 252.097 146.8 252.88C147.192 253.531 147.322 254.444 147.322 255.356ZM144.841 255.356C144.841 254.835 144.711 254.314 144.58 253.792C144.319 253.271 144.058 252.88 143.666 252.489C143.274 252.097 142.883 251.837 142.36 251.576C141.838 251.315 141.316 251.315 140.794 251.315C140.271 251.315 139.749 251.446 139.227 251.576C138.704 251.837 138.313 252.097 137.921 252.489C137.529 252.88 137.268 253.271 137.007 253.792C136.746 254.314 136.746 254.835 136.746 255.356C136.746 255.878 136.876 256.399 137.007 256.921C137.268 257.442 137.529 257.833 137.921 258.224C138.313 258.616 138.704 258.876 139.227 259.137C139.749 259.398 140.271 259.398 140.794 259.398C141.316 259.398 141.838 259.267 142.36 259.137C142.883 258.876 143.274 258.616 143.666 258.224C144.058 257.833 144.319 257.442 144.58 256.921C144.711 256.399 144.841 255.878 144.841 255.356Z" fill="white"/>
<path d="M166.386 254.053C166.386 255.748 165.602 256.53 163.905 256.53H156.593V261.614H154.112V248.969H164.035C164.427 248.969 164.688 249.099 164.949 249.229C165.21 249.36 165.472 249.49 165.733 249.751C165.994 250.012 166.124 250.272 166.255 250.533C166.386 250.794 166.516 251.185 166.516 251.576V254.053H166.386ZM163.774 254.053V251.576H156.462V254.053H163.774Z" fill="white"/>
<path d="M184.666 251.446H179.574V261.484H177.093V251.446H172V248.969H184.666V251.446Z" fill="white"/>
<path d="M193.414 261.614H190.934V248.969H193.414V261.614Z" fill="white"/>
<path d="M212.347 261.614H202.685C200.988 261.614 200.204 260.832 200.204 259.137V251.576C200.204 250.924 200.465 250.272 200.857 249.751C201.249 249.229 201.902 248.969 202.685 248.969H212.347V251.446H202.685V259.007H212.347V261.614Z" fill="white"/>
<path d="M230.105 259.137C230.105 259.919 229.844 260.571 229.452 260.962C229.061 261.353 228.408 261.614 227.624 261.614H218.615V259.137H227.624V256.66H220.965C220.182 256.66 219.66 256.399 219.137 256.008C218.615 255.617 218.484 254.965 218.484 254.183V251.706C218.484 250.924 218.746 250.272 219.137 249.881C219.529 249.49 220.182 249.229 220.965 249.229H229.583V251.706H220.965V254.183H227.624C228.408 254.183 229.061 254.444 229.452 254.835C229.975 255.226 230.105 255.878 230.105 256.66V259.137Z" fill="white"/>
</svg>
