<svg xmlns="http://www.w3.org/2000/svg" width="124" height="27" viewBox="0 0 124 27" fill="none"><path d="M10.9024 0C4.88165 0 0 4.84709 0 10.8253C0 16.8034 10.5039 27 10.9024 27C11.301 27 21.8049 16.8062 21.8049 10.8281C21.8049 4.8499 16.9261 0 10.9024 0Z" fill="#0071CE"></path><path d="M10.9017 7.41504H3.73047V9.96348C3.73047 10.0028 3.73047 10.0393 3.7333 10.0786C3.76722 10.8279 4.16577 11.4791 4.82439 11.8636C5.50844 12.2621 6.33948 12.293 7.04897 11.9422C7.2638 11.8355 7.54364 11.6362 7.84044 11.4257C8.66582 10.8392 9.69473 10.1094 10.9045 10.1094C12.1115 10.1094 13.1404 10.8392 13.9686 11.4257C14.2654 11.6362 14.5453 11.8355 14.7601 11.9422C15.4696 12.293 16.3006 12.2621 16.9847 11.8636C17.6433 11.4791 18.0419 10.8279 18.0758 10.0786C18.0786 10.0393 18.0786 10.0028 18.0786 9.96348V7.41504H10.9017Z" fill="#FFCB6B"></path><path d="M17.413 12.5904C16.4802 13.1349 15.3467 13.1742 14.38 12.697C14.1058 12.5623 13.8118 12.3546 13.4726 12.1132C12.7462 11.5968 11.8388 10.9541 10.9032 10.9541C9.96757 10.9541 9.06304 11.5968 8.33376 12.1132C7.99456 12.3546 7.70341 12.5623 7.4264 12.697C6.97696 12.9188 6.4936 13.0282 6.01024 13.0282C5.45057 13.0282 4.89371 12.8823 4.39339 12.5904C4.36513 12.5735 4.33686 12.5567 4.30859 12.5371C5.28379 15.2174 7.86736 17.1344 10.9004 17.1344C13.9362 17.1344 16.5198 15.2174 17.4921 12.5371C17.4695 12.5567 17.4413 12.5735 17.413 12.5904Z" fill="white"></path><path d="M10.9016 3.21875C8.36043 3.21875 6.13585 4.56033 4.90625 6.56989H10.9016H16.8969C15.6674 4.56314 13.4428 3.21875 10.9016 3.21875Z" fill="white"></path><path d="M40.607 8.59417C40.607 9.43617 40.4402 10.2361 40.1038 10.9882C39.7703 11.7432 39.318 12.4028 38.7527 12.9726C38.1874 13.5423 37.5231 13.9886 36.7655 14.3141C36.0052 14.6397 35.2024 14.8025 34.3544 14.8025C33.4923 14.8025 32.681 14.6397 31.9235 14.3141C31.1631 13.9886 30.4988 13.5451 29.925 12.981C29.3512 12.4196 28.9018 11.7601 28.5739 11.0079C28.246 10.2529 28.082 9.4502 28.082 8.59417C28.082 7.73814 28.246 6.93264 28.5739 6.18045C28.9018 5.42546 29.3512 4.76871 29.925 4.20738C30.496 3.64604 31.1631 3.19698 31.9235 2.8658C32.6838 2.53461 33.4923 2.36621 34.3544 2.36621C35.2024 2.36621 36.008 2.5318 36.7655 2.8658C37.5259 3.19698 38.1874 3.64604 38.7527 4.20738C39.318 4.76871 39.7675 5.43108 40.1038 6.19168C40.4402 6.94948 40.607 7.74937 40.607 8.59417ZM38.176 8.59417C38.176 8.08336 38.0771 7.59501 37.8764 7.1291C37.6757 6.6632 37.4044 6.25343 37.0567 5.90259C36.709 5.55176 36.3048 5.2739 35.8412 5.06902C35.3776 4.86413 34.883 4.76309 34.3544 4.76309C33.8258 4.76309 33.3283 4.86413 32.8591 5.06902C32.3899 5.2739 31.98 5.54896 31.6323 5.89417C31.2846 6.23939 31.0076 6.64355 30.8013 7.11226C30.5949 7.57817 30.4932 8.07494 30.4932 8.59698C30.4932 9.12182 30.5949 9.61299 30.8013 10.0733C31.0076 10.5336 31.2846 10.9349 31.6323 11.2801C31.98 11.6254 32.387 11.9004 32.8591 12.1053C33.3283 12.3102 33.8258 12.4112 34.3544 12.4112C34.8688 12.4112 35.3579 12.3102 35.8214 12.1053C36.285 11.9004 36.6892 11.6226 37.0369 11.2717C37.3846 10.9209 37.6616 10.5139 37.8679 10.0536C38.0715 9.59054 38.176 9.10499 38.176 8.59417Z" fill="#0033A1"></path><path d="M54.7455 14.5916H53.2587L45.0952 6.42701V14.5916H42.6445V2.55664H44.691L52.3541 10.3956V2.55664H54.7483V14.5916H54.7455Z" fill="#0033A1"></path><path d="M62.9427 9.78177H56.5742V7.3877H62.9427V9.78177Z" fill="#0033A1"></path><path d="M76.2339 12.1948C76.2339 12.9751 76.0219 13.5673 75.5979 13.977C75.1739 14.3868 74.569 14.5889 73.7832 14.5889H65.1167V12.1948H73.7832V9.78109H67.3554C66.6346 9.78109 66.0523 9.57901 65.6085 9.17766C65.1647 8.77631 64.9414 8.17849 64.9414 7.38701V4.97329C64.9414 4.20708 65.1591 3.61207 65.5972 3.19107C66.0353 2.77007 66.6204 2.55957 67.3525 2.55957H75.6318V4.97329H67.3525V7.38701H73.7804C74.5266 7.38701 75.123 7.60313 75.5668 8.03816C76.0106 8.47319 76.2339 9.05417 76.2339 9.78109V12.1948Z" fill="#0033A1"></path><path d="M81.0987 14.5916H78.6875V2.55664H81.0987V14.5916Z" fill="#0033A1"></path><path d="M95.6882 14.5924H85.9815C84.3731 14.5924 83.5703 13.7953 83.5703 12.1983V4.97122C83.5703 4.28078 83.7767 3.70542 84.1865 3.24512C84.5992 2.78483 85.1956 2.55469 85.9815 2.55469H95.284V4.96841H85.9815V12.1927H93.2375V9.73972H88.4322V7.38213H95.6882V14.5924Z" fill="#0033A1"></path><path d="M109.952 14.5916H107.521V9.78096H100.689V14.5916H98.2383V2.55664H100.689V7.38689H107.521V2.55664H109.952V14.5916Z" fill="#0033A1"></path><path d="M123.999 4.97036H119.134V14.5888H116.74V4.97036H111.875V2.55664H123.996V4.97036H123.999Z" fill="#0033A1"></path><path d="M39.2515 23.292C39.2515 23.6063 39.1667 23.8477 38.9943 24.0133C38.8218 24.1789 38.5787 24.2603 38.2593 24.2603H34.7514V23.292H38.2593V22.3153H35.6588C35.3676 22.3153 35.1302 22.2339 34.9521 22.0711C34.7712 21.9083 34.6836 21.6669 34.6836 21.347V20.3703C34.6836 20.0587 34.7712 19.8202 34.9493 19.649C35.1274 19.4778 35.362 19.3936 35.6616 19.3936H39.014V20.3703H35.6616V21.347H38.2621C38.5646 21.347 38.8049 21.434 38.9858 21.6108C39.1667 21.7876 39.2543 22.0206 39.2543 22.3181V23.292H39.2515Z" fill="#0033A1"></path><path d="M46.7385 24.26H45.7548V22.3122H42.8179V24.26H41.8398V20.3672C41.8398 20.0613 41.9303 19.8227 42.1084 19.6487C42.2893 19.4747 42.5239 19.3877 42.815 19.3877H45.7519C45.8933 19.3877 46.0233 19.413 46.1477 19.4607C46.2692 19.5112 46.3738 19.5785 46.4614 19.6656C46.5462 19.7526 46.6141 19.8564 46.665 19.9771C46.7158 20.095 46.7385 20.2241 46.7385 20.3644V24.26ZM45.7548 21.3439V20.3672H42.8179V21.3439H45.7548Z" fill="#0033A1"></path><path d="M53.2964 22.3152H50.3736V24.263H49.3984V19.3906H53.319V20.3673H50.3736V21.3441H53.2964V22.3152Z" fill="#0033A1"></path><path d="M59.6276 24.2602H55.707V19.3906H59.622V20.3673H56.6851V21.3441H59.6078V22.3124H56.6851V23.2891H59.6304V24.2602H59.6276Z" fill="#0033A1"></path><path d="M66.7754 20.3673H64.808V24.2602H63.8385V20.3673H61.8711V19.3906H66.7782V20.3673H66.7754Z" fill="#0033A1"></path><path d="M73.7129 19.3906L71.737 22.5621V24.2602H70.7533V22.5621L68.8086 19.3906H69.9421L71.2621 21.5714L72.6133 19.3906H73.7129Z" fill="#0033A1"></path><path d="M85.2177 21.8328C85.2177 22.1752 85.1499 22.4979 85.0142 22.801C84.8785 23.107 84.6976 23.3736 84.4687 23.6037C84.2397 23.8339 83.9712 24.0135 83.6631 24.1454C83.355 24.2773 83.0299 24.3419 82.6879 24.3419C82.3402 24.3419 82.0095 24.2745 81.7042 24.1454C81.3961 24.0135 81.1275 23.8339 80.8958 23.6066C80.664 23.3792 80.4831 23.1126 80.3502 22.8067C80.2174 22.5007 80.1523 22.1752 80.1523 21.8299C80.1523 21.4847 80.2202 21.1592 80.3502 20.8532C80.4831 20.5473 80.664 20.2807 80.8958 20.0533C81.1275 19.826 81.3961 19.6436 81.7042 19.5116C82.0123 19.3769 82.3402 19.3096 82.6879 19.3096C83.0327 19.3096 83.3578 19.3769 83.6631 19.5116C83.9712 19.6464 84.2397 19.826 84.4687 20.0533C84.6976 20.2807 84.8814 20.5473 85.0142 20.856C85.1499 21.1676 85.2177 21.4931 85.2177 21.8328ZM84.2341 21.8328C84.2341 21.6251 84.1945 21.4286 84.1125 21.2405C84.0305 21.0525 83.9203 20.8869 83.7818 20.7438C83.6405 20.6006 83.4765 20.4884 83.2899 20.407C83.1034 20.3256 82.9027 20.2835 82.6879 20.2835C82.473 20.2835 82.2723 20.3256 82.083 20.407C81.8936 20.4884 81.7268 20.6006 81.5883 20.741C81.447 20.8813 81.3367 21.0441 81.2519 21.2321C81.1671 21.4202 81.1275 21.6223 81.1275 21.8328C81.1275 22.0461 81.1699 22.2425 81.2519 22.4306C81.3339 22.6158 81.447 22.7786 81.5883 22.9189C81.7296 23.0593 81.8936 23.1687 82.083 23.2529C82.2723 23.3371 82.4759 23.3764 82.6879 23.3764C82.897 23.3764 83.0949 23.3343 83.2815 23.2529C83.468 23.1715 83.632 23.0565 83.7733 22.9161C83.9146 22.773 84.0249 22.6102 84.1097 22.425C84.1917 22.2369 84.2341 22.0404 84.2341 21.8328Z" fill="#0033A1"></path><path d="M92.594 21.3441C92.594 21.9896 92.2689 22.3124 91.6188 22.3124H88.7525V24.2602H87.7773V19.3906H91.6216C91.7573 19.3906 91.8845 19.4159 92.0004 19.4692C92.1163 19.5197 92.2209 19.5899 92.3085 19.6797C92.3961 19.7667 92.4668 19.8706 92.5205 19.9913C92.5714 20.1091 92.5996 20.2382 92.5996 20.3701V21.3441H92.594ZM91.6188 21.3441V20.3673H88.7525V21.3441H91.6188Z" fill="#0033A1"></path><path d="M99.7011 20.3673H97.7338V24.2602H96.7642V20.3673H94.7969V19.3906H99.7039V20.3673H99.7011Z" fill="#0033A1"></path><path d="M103.096 24.2602H102.121V19.3906H103.096V24.2602Z" fill="#0033A1"></path><path d="M110.451 24.2602H106.694C106.044 24.2602 105.719 23.9374 105.719 23.2919V20.3673C105.719 20.0923 105.801 19.8621 105.965 19.6741C106.129 19.4861 106.372 19.3906 106.694 19.3906H110.451V20.3673H106.694V23.2919H110.451V24.2602Z" fill="#0033A1"></path><path d="M117.396 23.292C117.396 23.6063 117.311 23.8477 117.139 24.0133C116.966 24.1789 116.723 24.2603 116.404 24.2603H112.896V23.292H116.404V22.3153H113.803C113.512 22.3153 113.275 22.2339 113.097 22.0711C112.916 21.9083 112.828 21.6669 112.828 21.347V20.3703C112.828 20.0587 112.916 19.8202 113.094 19.649C113.272 19.4778 113.507 19.3936 113.806 19.3936H117.159V20.3703H113.806V21.347H116.407C116.709 21.347 116.949 21.434 117.13 21.6108C117.311 21.7876 117.399 22.0206 117.399 22.3181V23.292H117.396Z" fill="#0033A1"></path></svg>