<svg
  width="248"
  height="186"
  viewBox="0 0 248 186"
  fill="none"
  xmlns="http://www.w3.org/2000/svg"
>
  <path
    d="M123.819 0.758789C82.819 0.758789 49.5229 34.0012 49.5229 74.935C49.5229 115.869 121.077 185.743 123.819 185.743C126.561 185.743 198.115 115.869 198.115 74.935C198.115 34.0012 164.819 0.758789 123.819 0.758789Z"
    fill="#0071CE"
  />
  <path
    d="M123.819 51.6001H74.854V69.0687C74.854 69.3294 74.854 69.5901 74.854 69.8508C75.1151 74.935 77.8572 79.4976 82.2966 82.1049C86.9973 84.8425 92.6119 85.1032 97.4431 82.6263C98.8794 81.8442 100.838 80.5405 102.797 79.1065C108.411 75.0653 115.462 70.1116 123.688 70.1116C131.914 70.1116 138.965 75.0653 144.58 79.1065C146.538 80.5405 148.497 81.9745 149.933 82.6263C154.765 84.9729 160.379 84.8425 165.08 82.1049C169.519 79.4976 172.261 75.0653 172.522 69.8508C172.522 69.5901 172.522 69.3294 172.522 69.0687V51.6001H123.819Z"
    fill="#FFB71B"
  />
  <path
    d="M168.083 87.0588C161.685 90.8393 153.981 91.1001 147.453 87.841C145.625 86.9285 143.535 85.4945 141.316 83.7998C136.354 80.28 130.217 75.8477 123.819 75.8477C117.421 75.8477 111.284 80.28 106.322 83.7998C103.972 85.4945 102.013 86.9285 100.185 87.841C97.1821 89.4053 93.7872 90.0572 90.5229 90.0572C86.7363 90.0572 82.9497 89.0143 79.5548 87.0588C79.4242 86.9285 79.163 86.7981 79.0325 86.6677C85.6917 105.049 103.319 118.215 123.95 118.215C144.58 118.215 162.207 105.049 168.867 86.6677C168.475 86.7981 168.344 86.9285 168.083 87.0588Z"
    fill="white"
  />
  <path
    d="M123.819 22.9204C106.453 22.9204 91.3064 32.1761 82.9497 45.8642H123.819H164.688C156.201 32.0458 141.055 22.9204 123.819 22.9204Z"
    fill="white"
  />
</svg>
