<svg width="328" height="72" viewBox="0 0 328 72" fill="none" xmlns="http://www.w3.org/2000/svg">
<path d="M28.8598 0C12.9346 0 0 12.9164 0 28.8192C0 44.722 27.8131 71.8239 28.8598 71.8239C29.9065 71.8239 57.7196 44.722 57.7196 28.8192C57.7196 12.9164 44.785 0 28.8598 0Z" fill="#0071CE"/>
<path d="M28.8598 19.7104H9.86914V26.5046C9.86914 26.5793 9.86914 26.7286 9.86914 26.8032C9.94391 28.8191 10.9906 30.5363 12.785 31.5816C14.5794 32.6268 16.8224 32.7015 18.6916 31.8055C19.2897 31.5069 19.9626 30.9843 20.785 30.4616C22.9533 28.8938 25.7196 26.9526 28.8598 26.9526C32.0747 26.9526 34.7663 28.8938 36.9346 30.4616C37.6822 30.9843 38.4299 31.5816 39.028 31.8055C40.8972 32.7015 43.1402 32.6268 44.9346 31.5816C46.6542 30.5363 47.7009 28.8191 47.8504 26.8032C47.8504 26.7286 47.8504 26.5793 47.8504 26.5046V19.7104H28.8598Z" fill="#FFCB6B"/>
<path d="M46.0561 33.5228C43.5888 34.9414 40.5982 35.0907 38.0561 33.8215C37.3084 33.4482 36.5608 32.9256 35.6636 32.2536C33.7196 30.9097 31.3271 29.1925 28.8598 29.1925C26.3925 29.1925 24 30.9097 22.0561 32.2536C21.1589 32.9256 20.4112 33.4482 19.6636 33.8215C18.4673 34.4188 17.1963 34.7174 15.9253 34.7174C14.4299 34.7174 13.0094 34.3441 11.6636 33.5228C11.5888 33.4482 11.514 33.4482 11.4393 33.3735C13.9813 40.4663 20.8598 45.6179 28.8598 45.6179C36.8598 45.6179 43.7383 40.541 46.2804 33.3735C46.2056 33.3735 46.1309 33.4482 46.0561 33.5228Z" fill="white"/>
<path d="M28.8598 8.58606C22.1308 8.58606 16.2243 12.1698 13.0093 17.4707H28.8598H44.7103C41.4953 12.1698 35.5888 8.58606 28.8598 8.58606Z" fill="white"/>
<path d="M107.439 22.8463C107.439 25.0861 106.991 27.1766 106.093 29.1925C105.196 31.2083 104 32.9255 102.505 34.4934C101.009 35.9866 99.2897 37.1812 97.271 38.0771C95.2523 38.9731 93.1589 39.3464 90.9159 39.3464C88.6729 39.3464 86.5047 38.8984 84.486 38.0771C82.4673 37.1812 80.7477 36.0613 79.1776 34.5681C77.6822 33.0748 76.486 31.3576 75.5888 29.3418C74.6916 27.3259 74.3177 25.1608 74.3177 22.9209C74.3177 20.6811 74.7663 18.5159 75.5888 16.5001C76.486 14.4842 77.6822 12.767 79.1776 11.2738C80.6729 9.7806 82.4673 8.58602 84.486 7.69009C86.5047 6.79416 88.6729 6.34619 90.9159 6.34619C93.1589 6.34619 95.2523 6.79416 97.271 7.69009C99.2897 8.58602 101.009 9.7806 102.505 11.2738C104 12.767 105.196 14.5589 106.093 16.5748C106.991 18.5159 107.439 20.6065 107.439 22.8463ZM101.009 22.8463C101.009 21.5024 100.71 20.1585 100.187 18.9639C99.6635 17.6947 98.9159 16.6494 98.0187 15.6788C97.1215 14.7082 96 14.0363 94.8037 13.439C93.6075 12.9164 92.2617 12.6177 90.8411 12.6177C89.4205 12.6177 88.1495 12.9164 86.8785 13.439C85.6075 13.9616 84.5607 14.7082 83.6635 15.6042C82.7663 16.5001 82.0187 17.62 81.4953 18.8146C80.972 20.0838 80.6729 21.3531 80.6729 22.7716C80.6729 24.1902 80.972 25.4594 81.4953 26.7287C82.0187 27.9232 82.7663 29.0432 83.6635 29.9391C84.5607 30.835 85.6822 31.5816 86.8785 32.1043C88.1495 32.6269 89.4205 32.9255 90.8411 32.9255C92.1869 32.9255 93.5327 32.6269 94.729 32.1043C95.9252 31.5816 97.0467 30.835 97.9439 29.8644C98.8411 28.8938 99.5888 27.8486 100.112 26.654C100.71 25.5341 101.009 24.1902 101.009 22.8463Z" fill="white"/>
<path d="M144.822 38.8237H140.86L119.252 17.0973V38.8237H112.748V6.79407H118.131L138.393 27.6245V6.79407H144.748V38.8237H144.822Z" fill="white"/>
<path d="M166.505 25.9821H149.682V19.6359H166.505V25.9821Z" fill="white"/>
<path d="M201.645 32.4029C201.645 34.4934 201.047 36.0613 199.925 37.1065C198.804 38.2265 197.234 38.7491 195.14 38.7491H172.187V32.4029H195.14V25.982H178.168C176.299 25.982 174.729 25.4594 173.533 24.3395C172.336 23.2942 171.738 21.6517 171.738 19.5612V13.1403C171.738 11.1245 172.336 9.5566 173.458 8.43669C174.579 7.31677 176.15 6.71948 178.093 6.71948H200V13.1403H178.093V19.6358H195.065C197.009 19.6358 198.579 20.2331 199.776 21.3531C200.972 22.473 201.57 24.0408 201.57 25.982V32.4029H201.645Z" fill="white"/>
<path d="M214.505 38.8237H208.15V6.79407H214.505V38.8237Z" fill="white"/>
<path d="M253.084 38.8237H227.439C223.178 38.8237 221.084 36.7331 221.084 32.4775V13.2149C221.084 11.3484 221.607 9.85517 222.729 8.66059C223.85 7.46602 225.421 6.79407 227.439 6.79407H252.037V13.2149H227.439V32.4028H246.654V25.9073H233.944V19.6358H253.084V38.8237Z" fill="white"/>
<path d="M290.841 38.8237H284.411V25.982H266.318V38.749H259.813V6.79407H266.318V19.6358H284.411V6.79407H290.841V38.8237Z" fill="white"/>
<path d="M328 13.2149H315.14V38.8237H308.785V13.2149H295.925V6.79407H328V13.2149Z" fill="white"/>
<path d="M103.85 61.9687C103.85 62.7899 103.626 63.4619 103.178 63.9099C102.729 64.3578 102.056 64.5818 101.234 64.5818H91.9626V61.9687H101.234V59.3555H94.3551C93.6074 59.3555 92.9345 59.1315 92.4859 58.6836C92.0373 58.2356 91.7383 57.6383 91.7383 56.7424V54.1293C91.7383 53.308 91.9626 52.636 92.4112 52.1881C92.8598 51.7401 93.5327 51.5161 94.2803 51.5161H103.178V54.1293H94.2803V56.7424H101.159C101.981 56.7424 102.579 56.9664 103.103 57.4143C103.551 57.8623 103.85 58.5343 103.85 59.2809V61.9687Z" fill="white"/>
<path d="M123.664 64.5071H121.047V59.3555H113.271V64.5071H110.654V54.1292C110.654 53.308 110.879 52.7107 111.402 52.1881C111.85 51.7401 112.523 51.5161 113.271 51.5161H121.047C121.421 51.5161 121.794 51.5908 122.093 51.7401C122.393 51.8894 122.692 52.0387 122.916 52.2627C123.14 52.4867 123.29 52.7854 123.439 53.084C123.589 53.3826 123.664 53.7559 123.664 54.1292V64.5071ZM121.047 56.7424V54.1292H113.271V56.7424H121.047Z" fill="white"/>
<path d="M141.009 59.3556H133.308V64.5072H130.692V51.5908H141.084V54.204H133.308V56.8171H141.009V59.3556Z" fill="white"/>
<path d="M157.757 64.5072H147.364V51.5908H157.682V54.204H149.906V56.8171H157.607V59.4302H149.906V62.0434H157.682V64.5072H157.757Z" fill="white"/>
<path d="M176.673 54.204H171.439V64.5818H168.897V54.204H163.664V51.5908H176.673V54.204Z" fill="white"/>
<path d="M194.991 51.5908L189.757 60.0275V64.5818H187.14V60.0275L181.981 51.5908H184.972L188.486 57.4144L192.075 51.5908H194.991Z" fill="white"/>
<path d="M225.421 58.0863C225.421 58.9822 225.271 59.8782 224.897 60.6994C224.523 61.5207 224.075 62.1927 223.477 62.8646C222.879 63.4619 222.131 63.9845 221.383 64.2832C220.561 64.6565 219.738 64.8058 218.766 64.8058C217.869 64.8058 216.972 64.6565 216.15 64.2832C215.327 63.9099 214.654 63.4619 213.981 62.8646C213.383 62.2673 212.86 61.5207 212.561 60.7741C212.187 59.9528 212.037 59.1315 212.037 58.161C212.037 57.265 212.187 56.3691 212.561 55.5478C212.935 54.7265 213.383 54.0546 213.981 53.4573C214.579 52.86 215.327 52.3374 216.15 52.0387C216.972 51.6654 217.794 51.5161 218.766 51.5161C219.664 51.5161 220.561 51.6654 221.383 52.0387C222.206 52.4121 222.879 52.86 223.477 53.4573C224.075 54.0546 224.598 54.8012 224.897 55.6225C225.271 56.2944 225.421 57.1904 225.421 58.0863ZM222.804 58.0863C222.804 57.5637 222.729 57.041 222.505 56.5184C222.28 55.9958 221.981 55.5478 221.607 55.1745C221.234 54.8012 220.785 54.5026 220.336 54.2786C219.813 54.0546 219.29 53.9799 218.766 53.9799C218.168 53.9799 217.645 54.0546 217.196 54.2786C216.673 54.5026 216.224 54.8012 215.85 55.1745C215.477 55.5478 215.178 55.9958 214.953 56.5184C214.729 57.041 214.654 57.5637 214.654 58.0863C214.654 58.6836 214.729 59.2062 214.953 59.6542C215.178 60.1768 215.477 60.5501 215.85 60.9234C216.224 61.2967 216.673 61.5954 217.196 61.8194C217.72 62.0433 218.243 62.118 218.766 62.118C219.29 62.118 219.813 62.0433 220.336 61.8194C220.86 61.5954 221.234 61.2967 221.607 60.9234C221.981 60.5501 222.28 60.1021 222.505 59.5795C222.729 59.1316 222.804 58.6089 222.804 58.0863Z" fill="white"/>
<path d="M244.934 56.7424C244.934 58.4596 244.037 59.3556 242.318 59.3556H234.766V64.5072H232.149V51.5908H242.318C242.692 51.5908 242.991 51.6655 243.29 51.8148C243.589 51.9641 243.888 52.1134 244.112 52.3374C244.336 52.5614 244.561 52.8601 244.635 53.1587C244.785 53.4573 244.86 53.8307 244.86 54.204V56.7424H244.934ZM242.318 56.7424V54.1293H234.766V56.7424H242.318Z" fill="white"/>
<path d="M263.776 54.204H258.542V64.5818H256V54.204H250.766V51.5908H263.776V54.204Z" fill="white"/>
<path d="M272.673 64.5072H270.056V51.5908H272.673V64.5072Z" fill="white"/>
<path d="M292.187 64.5071H282.243C280.523 64.5071 279.626 63.6112 279.626 61.894V54.1292C279.626 53.3826 279.85 52.7854 280.299 52.2627C280.748 51.7401 281.346 51.5161 282.243 51.5161H292.187V54.1292H282.243V61.894H292.187V64.5071Z" fill="white"/>
<path d="M310.579 61.9687C310.579 62.7899 310.355 63.4619 309.907 63.9099C309.458 64.3578 308.785 64.5818 307.963 64.5818H298.692V61.9687H307.963V59.3555H301.084C300.336 59.3555 299.664 59.1316 299.215 58.6836C298.766 58.2356 298.467 57.6383 298.467 56.7424V54.1293C298.467 53.308 298.692 52.636 299.14 52.1881C299.589 51.7401 300.262 51.5161 301.009 51.5161H309.907V54.1293H301.009V56.7424H307.888C308.71 56.7424 309.308 56.9664 309.832 57.4143C310.28 57.8623 310.579 58.5343 310.579 59.2809V61.9687Z" fill="white"/>
</svg>
