<?xml version="1.0" encoding="UTF-8"?>
<svg id="Layer_1" data-name="Layer 1" xmlns="http://www.w3.org/2000/svg" version="1.1" viewBox="0 0 248 262">
  <defs>
    <style>
      .cls-1 {
        fill: #0071ce;
      }

      .cls-1, .cls-2, .cls-3, .cls-4 {
        stroke-width: 0px;
      }

      .cls-2 {
        fill: #17488c;
      }

      .cls-3 {
        fill: #ffb71b;
      }

      .cls-4 {
        fill: #fff;
      }
    </style>
  </defs>
  <path class="cls-1" d="M123.8.8C82.8.8,49.5,34,49.5,74.9s71.6,110.8,74.3,110.8,74.3-69.9,74.3-110.8S164.8.8,123.8.8Z"/>
  <path class="cls-3" d="M123.8,51.6h-49v18.3c.3,5.1,3,9.6,7.4,12.3,4.7,2.7,10.3,3,15.1.5,1.4-.8,3.4-2.1,5.4-3.5,5.6-4,12.7-9,20.9-9s15.3,5,20.9,9c2,1.4,3.9,2.9,5.4,3.5,4.8,2.3,10.4,2.2,15.1-.5,4.4-2.6,7.2-7,7.4-12.3v-18.3h-48.7Z"/>
  <path class="cls-4" d="M168.1,87.1c-6.4,3.8-14.1,4-20.6.8-1.8-.9-3.9-2.3-6.1-4-5-3.5-11.1-8-17.5-8s-12.5,4.4-17.5,8c-2.3,1.7-4.3,3.1-6.1,4-3,1.6-6.4,2.2-9.7,2.2s-7.6-1-11-3c-.1-.1-.4-.3-.5-.4,6.7,18.4,24.3,31.5,44.9,31.5s38.3-13.2,44.9-31.5c-.4.1-.5.3-.8.4Z"/>
  <path class="cls-4" d="M123.8,22.9c-17.4,0-32.5,9.3-40.9,22.9h81.7c-8.5-13.8-23.6-22.9-40.9-22.9Z"/>
  <path class="cls-2" d="M32.5,221.1c0,2.2-.4,4.3-1.3,6.3-.9,2-2,3.7-3.5,5.1-1.4,1.4-3.1,2.6-5.1,3.5-2,.8-4,1.3-6.3,1.3s-4.3-.4-6.3-1.3c-2-.8-3.7-2-5.1-3.4-1.4-1.4-2.6-3.1-3.5-5.1-.8-2-1.3-4-1.3-6.3s.4-4.3,1.3-6.3c.8-2,2-3.6,3.5-5.1,1.4-1.4,3.1-2.6,5.1-3.5,2-.9,4-1.3,6.3-1.3s4.3.4,6.3,1.3c2,.9,3.7,2,5.1,3.5,1.4,1.4,2.6,3.1,3.5,5.1.9,1.8,1.3,3.9,1.3,6.1ZM26.3,221.1c0-1.3-.3-2.6-.8-3.8-.5-1.2-1.2-2.2-2.1-3.1-.9-.9-2-1.6-3.1-2.2-1.2-.5-2.5-.8-3.8-.8s-2.6.3-3.8.8c-1.2.5-2.2,1.3-3.1,2.1-.9.9-1.6,2-2.1,3.1-.5,1.2-.8,2.5-.8,3.8s.3,2.6.8,3.8c.5,1.2,1.3,2.2,2.1,3.1.9.9,2,1.6,3.1,2.1,1.2.5,2.5.8,3.8.8s2.6-.3,3.8-.8c1.2-.5,2.2-1.3,3.1-2.2.9-.9,1.6-2,2.1-3.1.5-.9.8-2.2.8-3.5Z"/>
  <path class="cls-2" d="M69,236.6h-3.8l-21-21.1v21.1h-6.3v-31.2h5.2l19.7,20.3v-20.3h6.1v31.2Z"/>
  <path class="cls-2" d="M90,224.1h-16.3v-6.3h16.3v6.3Z"/>
  <path class="cls-2" d="M124.2,230.3c0,2-.5,3.5-1.7,4.6-1,1-2.6,1.6-4.7,1.6h-22.2v-6.3h22.3v-6.3h-16.6c-1.8,0-3.4-.5-4.4-1.6-1.2-1-1.7-2.6-1.7-4.7v-6.3c0-2,.5-3.5,1.7-4.6,1.2-1,2.6-1.7,4.6-1.7h21.3v6.3h-21.3v6.3h16.6c2,0,3.4.5,4.6,1.7,1.2,1.2,1.7,2.6,1.7,4.6v6.4h-.1Z"/>
  <path class="cls-2" d="M136.7,236.6h-6.3v-31.2h6.3v31.2Z"/>
  <path class="cls-2" d="M174.4,236.6h-24.9c-4.2,0-6.3-2.1-6.3-6.3v-18.6c0-1.8.5-3.3,1.6-4.4,1-1.2,2.6-1.8,4.6-1.8h23.9v6.3h-23.9v18.6h18.7v-6.4h-12.4v-6.1h18.8v18.8Z"/>
  <path class="cls-2" d="M211,236.6h-6.3v-12.4h-17.6v12.4h-6.3v-31.2h6.3v12.5h17.6v-12.5h6.3v31.2Z"/>
  <path class="cls-2" d="M247.1,211.7h-12.5v24.9h-6.1v-24.9h-12.5v-6.3h31.2v6.3Z"/>
  <path class="cls-2" d="M29.2,259.1c0,.8-.3,1.4-.7,1.8-.4.4-1,.7-1.8.7h-9v-2.5h9v-2.5h-6.7c-.8,0-1.3-.3-1.8-.7-.5-.4-.7-1-.7-1.8v-2.5c0-.8.3-1.4.7-1.8.4-.4,1-.7,1.8-.7h8.6v2.5h-8.6v2.5h6.7c.8,0,1.4.3,1.8.7.5.4.7,1,.7,1.8v2.5Z"/>
  <path class="cls-2" d="M48.3,261.6h-2.5v-5.1h-7.6v5.1h-2.5v-10c0-.8.3-1.4.7-1.8.5-.4,1-.7,1.8-.7h7.6c.4,0,.7,0,1,.1.3.1.5.3.8.5.3.3.4.5.5.8s.1.7.1,1v10ZM45.9,254.1v-2.5h-7.6v2.5h7.6Z"/>
  <path class="cls-2" d="M65.2,256.5h-7.6v5.1h-2.5v-12.6h10.1v2.5h-7.6v2.5h7.6v2.6Z"/>
  <path class="cls-2" d="M81.5,261.6h-10.1v-12.6h10.1v2.5h-7.6v2.5h7.6v2.5h-7.6v2.5h7.6v2.7Z"/>
  <path class="cls-2" d="M99.9,251.4h-5.1v10h-2.5v-10h-5.1v-2.5h12.7v2.5Z"/>
  <path class="cls-2" d="M117.8,249l-5.1,8.2v4.4h-2.5v-4.4l-5-8.2h2.9l3.4,5.6,3.5-5.6h2.7Z"/>
  <path class="cls-2" d="M147.3,255.4c0,.9-.1,1.7-.5,2.5-.4.8-.8,1.4-1.4,2.1-.7.7-1.3,1-2.1,1.4-.8.4-1.6.5-2.5.5s-1.7-.1-2.5-.5c-.8-.4-1.4-.8-2.1-1.4-.7-.7-1-1.3-1.4-2.1-.4-.8-.5-1.7-.5-2.5s.1-1.7.5-2.5c.4-.8.8-1.4,1.4-2.1.7-.7,1.3-1,2.1-1.4.8-.4,1.7-.5,2.5-.5s1.7.1,2.5.5c.8.4,1.4.8,2.1,1.4.7.7,1,1.3,1.4,2.1.4.7.5,1.6.5,2.5ZM144.8,255.4c0-.5-.1-1-.3-1.6-.3-.5-.5-.9-.9-1.3-.4-.4-.8-.7-1.3-.9-.5-.3-1-.3-1.6-.3s-1,.1-1.6.3c-.5.3-.9.5-1.3.9-.4.4-.7.8-.9,1.3-.3.5-.3,1-.3,1.6s.1,1,.3,1.6c.3.5.5.9.9,1.3.4.4.8.7,1.3.9.5.3,1,.3,1.6.3s1-.1,1.6-.3c.5-.3.9-.5,1.3-.9.4-.4.7-.8.9-1.3.1-.5.3-1,.3-1.6Z"/>
  <path class="cls-2" d="M166.4,254.1c0,1.7-.8,2.5-2.5,2.5h-7.3v5.1h-2.5v-12.6h9.9c.4,0,.7.1.9.3.3.1.5.3.8.5.3.3.4.5.5.8.1.3.3.7.3,1v2.5h-.1ZM163.8,254.1v-2.5h-7.3v2.5h7.3Z"/>
  <path class="cls-2" d="M184.7,251.4h-5.1v10h-2.5v-10h-5.1v-2.5h12.7v2.5Z"/>
  <path class="cls-2" d="M193.4,261.6h-2.5v-12.6h2.5v12.6Z"/>
  <path class="cls-2" d="M212.3,261.6h-9.7c-1.7,0-2.5-.8-2.5-2.5v-7.6c0-.7.3-1.3.7-1.8.4-.5,1-.8,1.8-.8h9.7v2.5h-9.7v7.6h9.7v2.6Z"/>
  <path class="cls-2" d="M230.1,259.1c0,.8-.3,1.4-.7,1.8-.4.4-1,.7-1.8.7h-9v-2.5h9v-2.5h-6.7c-.8,0-1.3-.3-1.8-.7-.5-.4-.7-1-.7-1.8v-2.5c0-.8.3-1.4.7-1.8.4-.4,1-.7,1.8-.7h8.6v2.5h-8.6v2.5h6.7c.8,0,1.4.3,1.8.7.5.4.7,1,.7,1.8v2.5Z"/>
</svg>